<svg width="24" height="24" viewBox="0 0 24 24" fill="none" xmlns="http://www.w3.org/2000/svg">
<path d="M12 2.26562C17.3675 2.26562 21.7344 6.63254 21.7344 12C21.7344 17.3675 17.3675 21.7344 12 21.7344C6.63254 21.7344 2.26562 17.3675 2.26562 12C2.26562 6.63254 6.63254 2.26562 12 2.26562ZM16.4326 7.49512C16.2823 7.50709 16.1397 7.56297 16.0225 7.6543L15.9141 7.75781L10.1787 14.582L8.06836 12.2383C8.00188 12.1609 7.92041 12.0973 7.8291 12.0518C7.73783 12.0063 7.63791 11.9792 7.53613 11.9727C7.4345 11.9662 7.33254 11.9803 7.23633 12.0137C7.14001 12.0471 7.0514 12.0998 6.97559 12.168C6.89981 12.2362 6.83833 12.3189 6.79492 12.4111C6.7515 12.5035 6.72684 12.6041 6.72266 12.7061C6.71853 12.8079 6.73485 12.9094 6.77051 13.0049C6.80611 13.1002 6.85998 13.1876 6.92969 13.2617L9.62988 16.2617C9.70165 16.3415 9.78968 16.4055 9.8877 16.4492C9.96128 16.482 10.0394 16.5033 10.1191 16.5117L10.1992 16.5156H10.2119C10.3215 16.5139 10.4293 16.4884 10.5283 16.4414C10.6274 16.3943 10.7156 16.3262 10.7861 16.2422L17.0859 8.74219C17.2131 8.58633 17.2737 8.38677 17.2549 8.18652C17.236 7.98627 17.1394 7.80125 16.9854 7.67188C16.8315 7.54268 16.6329 7.47926 16.4326 7.49512Z" fill="white" stroke="white" stroke-width="0.03125"/>
</svg>
