<svg width="64" height="64" viewBox="0 0 64 64" fill="none" xmlns="http://www.w3.org/2000/svg">
<path d="M32 6C17.6637 6 6 17.6637 6 32C6 46.3363 17.6637 58 32 58C46.3363 58 58 46.3363 58 32C58 17.6637 46.3363 6 32 6ZM45.5312 23.2862L28.7313 43.2863C28.547 43.5058 28.3177 43.6831 28.0589 43.8062C27.8001 43.9294 27.5178 43.9955 27.2313 44H27.1975C26.9172 43.9999 26.64 43.9409 26.384 43.8267C26.1279 43.7126 25.8987 43.5459 25.7113 43.3375L18.5112 35.3375C18.3284 35.1436 18.1862 34.915 18.0929 34.6653C17.9996 34.4156 17.9572 34.1498 17.9681 33.8835C17.9791 33.6171 18.0431 33.3557 18.1565 33.1145C18.27 32.8733 18.4305 32.6571 18.6286 32.4788C18.8267 32.3005 19.0585 32.1636 19.3103 32.0762C19.5621 31.9887 19.8288 31.9525 20.0948 31.9696C20.3608 31.9867 20.6207 32.0568 20.8592 32.1758C21.0978 32.2948 21.3101 32.4603 21.4837 32.6625L27.145 38.9525L42.4688 20.7138C42.8125 20.3163 43.2988 20.0702 43.8226 20.0284C44.3463 19.9867 44.8655 20.1528 45.2678 20.4907C45.6701 20.8287 45.9233 21.3114 45.9726 21.8345C46.0219 22.3576 45.8634 22.8791 45.5312 23.2862Z" fill="#61D100"/>
</svg>
