<svg width="24" height="24" viewBox="0 0 24 24" fill="none" xmlns="http://www.w3.org/2000/svg">
<path d="M11.4841 5C7.83067 5 4.08301 7.11453 1.1327 11.3436C1.04849 11.4656 1.00234 11.6099 1.00009 11.7582C0.997834 11.9064 1.03958 12.052 1.12004 12.1766C3.38692 15.725 7.08442 18.5 11.4841 18.5C15.836 18.5 19.6094 15.7166 21.8805 12.1602C21.9591 12.0381 22.0009 11.8959 22.0009 11.7507C22.0009 11.6055 21.9591 11.4634 21.8805 11.3412C19.6043 7.82562 15.8032 5 11.4841 5Z" stroke="currentColor" stroke-linecap="round" stroke-linejoin="round"/>
<path d="M12 15.75C14.0711 15.75 15.75 14.0711 15.75 12C15.75 9.92893 14.0711 8.25 12 8.25C9.92893 8.25 8.25 9.92893 8.25 12C8.25 14.0711 9.92893 15.75 12 15.75Z" stroke="currentColor" stroke-miterlimit="10"/>
</svg>
