<svg width="24" height="24" viewBox="0 0 24 24" fill="none" xmlns="http://www.w3.org/2000/svg">
<path d="M16.5 3.76556C16.9847 3.7633 17.4676 3.83129 17.9326 3.96771C20.143 4.62032 21.6377 7.01124 22.6318 11.5058C23.1346 13.7776 23.3195 15.5296 23.1992 16.8622C23.041 18.5995 22.3497 19.6835 21.1475 20.0937C20.3841 20.3559 19.5979 20.2551 18.8096 19.7968C18.2165 19.4517 17.6209 18.9028 16.9902 18.1171C16.4863 17.4896 15.9417 17.0798 15.1709 16.8271C14.4009 16.5747 13.4053 16.4794 12 16.4794C10.4265 16.4795 9.38353 16.617 8.625 16.8906C7.86592 17.1644 7.39256 17.5743 6.95703 18.1171C6.57294 18.5951 6.09996 19.1255 5.54883 19.5361C4.99776 19.9466 4.36881 20.2363 3.67188 20.2363C3.37614 20.2353 3.08263 20.1852 2.80371 20.0869C1.78721 19.7351 1.14401 18.8005 0.890625 17.3466C0.637247 15.8924 0.774275 13.9212 1.31641 11.5029C2.3251 7.00685 3.81893 4.6175 6.01758 3.96771C6.5 3.83207 6.99887 3.76383 7.5 3.76556C8.13832 3.76556 8.69633 3.92136 9.28906 4.08783C10.004 4.28801 10.8164 4.51552 12 4.51556C13.1838 4.51556 13.9963 4.28804 14.71 4.08783C15.3021 3.92186 15.8599 3.76562 16.5 3.76556ZM7.5 7.48431C7.29707 7.4844 7.10249 7.56542 6.95898 7.70892C6.8155 7.85248 6.73439 8.04697 6.73438 8.24994V9.73431H5.25C5.04707 9.7344 4.85249 9.81542 4.70898 9.95892C4.5655 10.1025 4.48439 10.297 4.48438 10.4999C4.48438 10.7029 4.56553 10.8974 4.70898 11.041C4.85249 11.1845 5.04707 11.2655 5.25 11.2656H6.73438V12.7499C6.73438 12.9529 6.81553 13.1474 6.95898 13.291C7.10249 13.4345 7.29707 13.5155 7.5 13.5156C7.70306 13.5156 7.89841 13.4345 8.04199 13.291C8.18536 13.1474 8.26562 12.9528 8.26562 12.7499V11.2656H9.75C9.95306 11.2656 10.1484 11.1845 10.292 11.041C10.4354 10.8974 10.5156 10.7028 10.5156 10.4999C10.5156 10.297 10.4354 10.1025 10.292 9.95892C10.1484 9.81534 9.95306 9.73431 9.75 9.73431H8.26562V8.24994C8.26561 8.04704 8.18538 7.85246 8.04199 7.70892C7.89841 7.56534 7.70306 7.48431 7.5 7.48431ZM15.5654 11.6279C15.3806 11.6644 15.2106 11.7546 15.0771 11.8876C14.9436 12.0208 14.8524 12.191 14.8154 12.3759C14.7785 12.5607 14.7972 12.7525 14.8691 12.9267C14.9412 13.101 15.064 13.2496 15.2207 13.3544C15.3774 13.4592 15.5615 13.5155 15.75 13.5156C16.0024 13.5156 16.2452 13.4155 16.4238 13.2372C16.6024 13.059 16.7025 12.8167 16.7031 12.5644C16.7035 12.376 16.6482 12.192 16.5439 12.0351C16.4396 11.8782 16.2912 11.7551 16.1172 11.6826C15.9431 11.6101 15.7505 11.5914 15.5654 11.6279ZM13.502 9.56537C13.3171 9.60215 13.147 9.69281 13.0137 9.82611C12.8805 9.95939 12.7897 10.1296 12.7529 10.3144C12.7162 10.4992 12.7355 10.6911 12.8076 10.8652C12.8798 11.0391 13.0016 11.1883 13.1582 11.2929C13.3148 11.3975 13.4992 11.453 13.6875 11.4531C13.9402 11.4531 14.1826 11.3524 14.3613 11.1738C14.5401 10.995 14.6406 10.7527 14.6406 10.4999C14.6406 10.3115 14.5851 10.1273 14.4805 9.97064C14.3757 9.8139 14.2269 9.69122 14.0527 9.61908C13.8786 9.54694 13.6868 9.5286 13.502 9.56537ZM17.627 9.56537C17.4421 9.60215 17.272 9.69281 17.1387 9.82611C17.0055 9.95939 16.9147 10.1296 16.8779 10.3144C16.8412 10.4992 16.8605 10.6911 16.9326 10.8652C17.0048 11.0391 17.1266 11.1883 17.2832 11.2929C17.4398 11.3975 17.6242 11.453 17.8125 11.4531C18.0652 11.4531 18.3076 11.3524 18.4863 11.1738C18.6651 10.995 18.7656 10.7527 18.7656 10.4999C18.7656 10.3115 18.7101 10.1273 18.6055 9.97064C18.5007 9.8139 18.3519 9.69122 18.1777 9.61908C18.0036 9.54694 17.8118 9.5286 17.627 9.56537ZM15.5645 7.50287C15.3796 7.53965 15.2095 7.63031 15.0762 7.76361C14.943 7.89689 14.8522 8.06707 14.8154 8.25189C14.7787 8.43667 14.798 8.62862 14.8701 8.80267C14.9423 8.97662 15.0641 9.12578 15.2207 9.23041C15.3773 9.33502 15.5617 9.3905 15.75 9.39056C16.0027 9.39056 16.2451 9.28992 16.4238 9.11127C16.6026 8.93252 16.7031 8.69022 16.7031 8.43744C16.7031 8.24902 16.6476 8.06483 16.543 7.90814C16.4382 7.7514 16.2894 7.62872 16.1152 7.55658C15.9411 7.48444 15.7493 7.4661 15.5645 7.50287Z" fill="white" stroke="white" stroke-width="0.03125"/>
</svg>
