<svg width="24" height="24" viewBox="0 0 24 24" fill="none" xmlns="http://www.w3.org/2000/svg">
<path d="M21.9142 11.6639C21.0517 7.76485 19.7725 5.27766 17.7222 4.67157C17.3251 4.55573 16.9134 4.49794 16.4997 4.5C15.2392 4.5 14.2446 5.25 11.9997 5.25C9.75488 5.25 8.75831 4.5 7.49972 4.5C7.06881 4.49772 6.63969 4.55546 6.22472 4.67157C4.17159 5.27766 2.90316 7.76719 2.03081 11.6639C1.14019 15.6441 1.30144 18.7889 3.04237 19.3927C4.26112 19.8145 5.35097 18.9422 6.38316 17.6583C7.55503 16.1958 8.99831 15.7458 11.9997 15.7458C15.0011 15.7458 16.3882 16.1958 17.5619 17.6583C18.5932 18.9431 19.7233 19.8047 20.9097 19.4002C22.8325 18.7434 22.8053 15.6909 21.9142 11.6639Z" stroke="white" stroke-miterlimit="10"/>
<path d="M13.6875 9.57812C14.1966 9.57812 14.6094 9.99086 14.6094 10.5C14.6094 11.0091 14.1966 11.4219 13.6875 11.4219C13.1784 11.4219 12.7656 11.0091 12.7656 10.5C12.7656 9.99086 13.1784 9.57812 13.6875 9.57812Z" fill="white" stroke="white" stroke-width="0.03125"/>
<path d="M15.75 13.5C15.5645 13.5 15.3831 13.445 15.2289 13.3418C15.0747 13.2387 14.9545 13.0922 14.8836 12.9207C14.8128 12.7493 14.7943 12.5607 14.8307 12.3787C14.8671 12.1968 14.9566 12.0298 15.0879 11.8988C15.2193 11.7677 15.3865 11.6786 15.5685 11.6427C15.7506 11.6068 15.9391 11.6257 16.1104 11.697C16.2817 11.7684 16.4279 11.8889 16.5306 12.0434C16.6334 12.1978 16.688 12.3793 16.6875 12.5648C16.6869 12.8131 16.5878 13.0509 16.4121 13.2262C16.2363 13.4016 15.9982 13.5 15.75 13.5Z" fill="white"/>
<path d="M15.75 9.375C16.2678 9.375 16.6875 8.95527 16.6875 8.4375C16.6875 7.91973 16.2678 7.5 15.75 7.5C15.2322 7.5 14.8125 7.91973 14.8125 8.4375C14.8125 8.95527 15.2322 9.375 15.75 9.375Z" fill="white"/>
<path d="M17.8125 11.4375C18.3303 11.4375 18.75 11.0178 18.75 10.5C18.75 9.98223 18.3303 9.5625 17.8125 9.5625C17.2947 9.5625 16.875 9.98223 16.875 10.5C16.875 11.0178 17.2947 11.4375 17.8125 11.4375Z" fill="white"/>
<path d="M7.5 8.25V12.75M9.75 10.5H5.25" stroke="white" stroke-linecap="round" stroke-linejoin="round"/>
</svg>
