<svg width="24" height="24" viewBox="0 0 24 24" fill="none" xmlns="http://www.w3.org/2000/svg">
<path d="M7.5 1.51562H16.5C17.2912 1.51649 18.0499 1.83113 18.6094 2.39062C19.1689 2.95012 19.4835 3.70876 19.4844 4.5V21.75C19.4844 21.9448 19.4073 22.1318 19.2695 22.2695C19.1318 22.4073 18.9448 22.4844 18.75 22.4844L18.6172 22.4727C18.4862 22.449 18.3628 22.39 18.2617 22.3008L12.0107 16.7422L12 16.7324L11.9893 16.7422L5.73828 22.3008C5.63246 22.3949 5.50127 22.4561 5.36133 22.4775C5.22125 22.4989 5.07744 22.4801 4.94824 22.4219C4.81902 22.3636 4.70959 22.2686 4.63281 22.1494C4.55611 22.0303 4.51526 21.8917 4.51562 21.75V4.5C4.51649 3.70876 4.83113 2.95012 5.39062 2.39062C5.88017 1.90108 6.52218 1.59875 7.20508 1.53027L7.5 1.51562Z" fill="white" stroke="white" stroke-width="0.03125"/>
</svg>
