<svg width="60" height="56" viewBox="0 0 60 56" fill="none" xmlns="http://www.w3.org/2000/svg">
<g filter="url(#filter0_d_323_96)">
<path d="M24.1743 7.14999C20.2606 5.28154 14.7902 4.36627 7.46638 4.33377C6.77567 4.32439 6.09852 4.52578 5.52521 4.9111C5.05464 5.22914 4.66943 5.65794 4.40348 6.15978C4.13753 6.66162 3.99897 7.22111 4.00001 7.78906V38.7783C4.00001 40.8732 5.49055 42.4535 7.46638 42.4535C15.165 42.4535 22.8874 43.1727 27.5129 47.5444C27.5761 47.6044 27.6557 47.6446 27.7416 47.6599C27.8275 47.6751 27.916 47.6648 27.9961 47.6302C28.0762 47.5955 28.1443 47.5382 28.1921 47.4651C28.2398 47.3921 28.2651 47.3067 28.2646 47.2194V10.7049C28.2648 10.4586 28.212 10.2151 28.11 9.99085C28.008 9.76662 27.859 9.56689 27.6732 9.40514C26.6137 8.49943 25.4368 7.74087 24.1743 7.14999ZM54.4705 4.90785C53.8969 4.52349 53.2197 4.32322 52.5293 4.33377C45.2055 4.36627 39.7351 5.2772 35.8213 7.14999C34.559 7.73979 33.3817 8.49686 32.3214 9.4008C32.1359 9.56279 31.9873 9.7626 31.8855 9.98679C31.7836 10.211 31.731 10.4544 31.731 10.7006V47.2172C31.731 47.3011 31.7557 47.3831 31.802 47.4529C31.8484 47.5228 31.9144 47.5774 31.9917 47.6099C32.069 47.6424 32.1541 47.6514 32.2365 47.6357C32.3188 47.62 32.3947 47.5803 32.4546 47.5216C35.2353 44.7596 40.1153 42.4502 52.5336 42.4513C53.453 42.4513 54.3346 42.0862 54.9847 41.4361C55.6348 40.7861 56 39.9045 56 38.9852V7.79014C56.0013 7.22108 55.8624 6.66045 55.5956 6.15777C55.3289 5.65509 54.9424 5.22581 54.4705 4.90785Z" fill="url(#paint0_linear_323_96)"/>
</g>
<defs>
<filter id="filter0_d_323_96" x="0" y="0" width="60" height="60" filterUnits="userSpaceOnUse" color-interpolation-filters="sRGB">
<feFlood flood-opacity="0" result="BackgroundImageFix"/>
<feColorMatrix in="SourceAlpha" type="matrix" values="0 0 0 0 0 0 0 0 0 0 0 0 0 0 0 0 0 0 127 0" result="hardAlpha"/>
<feOffset dy="4"/>
<feGaussianBlur stdDeviation="2"/>
<feComposite in2="hardAlpha" operator="out"/>
<feColorMatrix type="matrix" values="0 0 0 0 0 0 0 0 0 0 0 0 0 0 0 0 0 0 0.25 0"/>
<feBlend mode="normal" in2="BackgroundImageFix" result="effect1_dropShadow_323_96"/>
<feBlend mode="normal" in="SourceGraphic" in2="effect1_dropShadow_323_96" result="shape"/>
</filter>
<linearGradient id="paint0_linear_323_96" x1="4" y1="26" x2="56" y2="26" gradientUnits="userSpaceOnUse">
<stop stop-color="#5431AA"/>
<stop offset="1" stop-color="#9758FF"/>
</linearGradient>
</defs>
</svg>
