<svg width="24" height="24" viewBox="0 0 24 24" fill="none" xmlns="http://www.w3.org/2000/svg">
<path d="M22.6468 11.5022C21.6526 7.0074 20.1563 4.60834 17.9368 3.95302C17.4703 3.81615 16.9863 3.74778 16.5001 3.75005C15.8574 3.75005 15.2978 3.90662 14.7057 4.07255C13.9923 4.27271 13.1818 4.50005 12.0001 4.50005C10.8184 4.50005 10.0074 4.27318 9.2926 4.07302C8.7001 3.90662 8.14088 3.75005 7.5001 3.75005C6.99733 3.74829 6.49675 3.81644 6.01275 3.95255C3.80494 4.60505 2.30963 7.00318 1.30088 11.4994C0.21619 16.3379 0.750096 19.3927 2.79806 20.1015C3.07879 20.2004 3.37416 20.2515 3.67182 20.2524C5.07478 20.2524 6.19978 19.0838 6.96853 18.1271C7.83713 17.0443 8.85385 16.4949 12.0001 16.4949C14.8103 16.4949 15.9732 16.876 16.9778 18.1271C17.6092 18.9136 18.2059 19.464 18.8012 19.8104C19.5929 20.2707 20.3842 20.3729 21.1524 20.109C22.3628 19.696 23.0565 18.6043 23.2149 16.8633C23.3354 15.5283 23.1498 13.7747 22.6468 11.5022ZM9.7501 11.2501H8.2501V12.7501C8.2501 12.949 8.17108 13.1397 8.03043 13.2804C7.88977 13.421 7.69901 13.5001 7.5001 13.5001C7.30118 13.5001 7.11042 13.421 6.96977 13.2804C6.82911 13.1397 6.7501 12.949 6.7501 12.7501V11.2501H5.2501C5.05118 11.2501 4.86042 11.171 4.71977 11.0304C4.57911 10.8897 4.5001 10.699 4.5001 10.5001C4.5001 10.3011 4.57911 10.1104 4.71977 9.96973C4.86042 9.82907 5.05118 9.75006 5.2501 9.75006H6.7501V8.25005C6.7501 8.05114 6.82911 7.86038 6.96977 7.71972C7.11042 7.57907 7.30118 7.50005 7.5001 7.50005C7.69901 7.50005 7.88977 7.57907 8.03043 7.71972C8.17108 7.86038 8.2501 8.05114 8.2501 8.25005V9.75006H9.7501C9.94901 9.75006 10.1398 9.82907 10.2804 9.96973C10.4211 10.1104 10.5001 10.3011 10.5001 10.5001C10.5001 10.699 10.4211 10.8897 10.2804 11.0304C10.1398 11.171 9.94901 11.2501 9.7501 11.2501ZM13.6876 11.4376C13.5022 11.4376 13.3209 11.3826 13.1667 11.2796C13.0126 11.1765 12.8924 11.0301 12.8215 10.8588C12.7505 10.6875 12.7319 10.499 12.7681 10.3172C12.8043 10.1353 12.8936 9.96825 13.0247 9.83714C13.1558 9.70603 13.3228 9.61674 13.5047 9.58057C13.6866 9.54439 13.8751 9.56296 14.0464 9.63392C14.2177 9.70487 14.3641 9.82504 14.4671 9.97921C14.5701 10.1334 14.6251 10.3146 14.6251 10.5001C14.6251 10.7487 14.5263 10.9872 14.3505 11.163C14.1747 11.3388 13.9362 11.4376 13.6876 11.4376ZM15.7501 13.5001C15.5646 13.5001 15.3832 13.445 15.229 13.3419C15.0748 13.2388 14.9546 13.0922 14.8837 12.9208C14.8128 12.7493 14.7944 12.5607 14.8308 12.3788C14.8671 12.1969 14.9567 12.0298 15.088 11.8988C15.2194 11.7678 15.3866 11.6787 15.5686 11.6428C15.7507 11.6069 15.9392 11.6258 16.1105 11.6971C16.2818 11.7684 16.428 11.8889 16.5307 12.0434C16.6335 12.1979 16.6881 12.3794 16.6876 12.5649C16.687 12.8131 16.5879 13.051 16.4122 13.2263C16.2364 13.4016 15.9983 13.5001 15.7501 13.5001ZM15.7501 9.37505C15.5647 9.37505 15.3834 9.32007 15.2292 9.21706C15.0751 9.11404 14.9549 8.96763 14.884 8.79632C14.813 8.62501 14.7944 8.43651 14.8306 8.25466C14.8668 8.0728 14.9561 7.90575 15.0872 7.77464C15.2183 7.64353 15.3853 7.55424 15.5672 7.51807C15.7491 7.48189 15.9376 7.50046 16.1089 7.57142C16.2802 7.64237 16.4266 7.76254 16.5296 7.91671C16.6326 8.07088 16.6876 8.25213 16.6876 8.43755C16.6876 8.6862 16.5888 8.92465 16.413 9.10047C16.2372 9.27628 15.9987 9.37505 15.7501 9.37505ZM17.8126 11.4376C17.6272 11.4376 17.4459 11.3826 17.2917 11.2796C17.1376 11.1765 17.0174 11.0301 16.9465 10.8588C16.8755 10.6875 16.8569 10.499 16.8931 10.3172C16.9293 10.1353 17.0186 9.96825 17.1497 9.83714C17.2808 9.70603 17.4478 9.61674 17.6297 9.58057C17.8116 9.54439 18.0001 9.56296 18.1714 9.63392C18.3427 9.70487 18.4891 9.82504 18.5921 9.97921C18.6951 10.1334 18.7501 10.3146 18.7501 10.5001C18.7501 10.7487 18.6513 10.9872 18.4755 11.163C18.2997 11.3388 18.0612 11.4376 17.8126 11.4376Z" fill="black"/>
</svg>
