<svg width="24" height="24" viewBox="0 0 24 24" fill="none" xmlns="http://www.w3.org/2000/svg">
<path d="M21.9145 11.6638C21.052 7.76479 19.7728 5.2776 17.7225 4.67151C17.3254 4.55567 16.9136 4.49788 16.5 4.49994C15.2395 4.49994 14.2448 5.24994 12 5.24994C9.75512 5.24994 8.75856 4.49994 7.49996 4.49994C7.06906 4.49766 6.63994 4.5554 6.22496 4.67151C4.17184 5.2776 2.9034 7.76713 2.03106 11.6638C1.14043 15.644 1.30168 18.7888 3.04262 19.3926C4.26137 19.8145 5.35121 18.9421 6.3834 17.6582C7.55527 16.1957 8.99856 15.7457 12 15.7457C15.0014 15.7457 16.3884 16.1957 17.5622 17.6582C18.5934 18.9431 19.7236 19.8046 20.91 19.4001C22.8328 18.7434 22.8056 15.6909 21.9145 11.6638Z" stroke="#0B0C18" stroke-miterlimit="10"/>
<path d="M13.6875 11.4375C14.2053 11.4375 14.625 11.0178 14.625 10.5C14.625 9.98223 14.2053 9.5625 13.6875 9.5625C13.1697 9.5625 12.75 9.98223 12.75 10.5C12.75 11.0178 13.1697 11.4375 13.6875 11.4375Z" fill="currentColor"/>
<path d="M15.75 13.5C15.5645 13.5 15.3831 13.445 15.2289 13.3418C15.0747 13.2387 14.9545 13.0922 14.8836 12.9207C14.8128 12.7493 14.7943 12.5607 14.8307 12.3787C14.8671 12.1968 14.9566 12.0298 15.0879 11.8988C15.2193 11.7677 15.3865 11.6786 15.5685 11.6427C15.7506 11.6068 15.9391 11.6257 16.1104 11.697C16.2817 11.7684 16.4279 11.8889 16.5306 12.0434C16.6334 12.1978 16.688 12.3793 16.6875 12.5648C16.6869 12.8131 16.5878 13.0509 16.4121 13.2262C16.2363 13.4016 15.9982 13.5 15.75 13.5Z" fill="currentColor"/>
<path d="M15.75 9.375C16.2678 9.375 16.6875 8.95527 16.6875 8.4375C16.6875 7.91973 16.2678 7.5 15.75 7.5C15.2322 7.5 14.8125 7.91973 14.8125 8.4375C14.8125 8.95527 15.2322 9.375 15.75 9.375Z" fill="currentColor"/>
<path d="M17.8125 11.4375C18.3303 11.4375 18.75 11.0178 18.75 10.5C18.75 9.98223 18.3303 9.5625 17.8125 9.5625C17.2947 9.5625 16.875 9.98223 16.875 10.5C16.875 11.0178 17.2947 11.4375 17.8125 11.4375Z" fill="currentColor"/>
<path d="M7.5 8.25V12.75M9.75 10.5H5.25" stroke="currentColor" stroke-linecap="round" stroke-linejoin="round"/>
</svg>
